# xmcd
#
# Track frame offsets:
#	150
#	17235
#	33270
#	52735
#	71025
#	83210
#	100595
#	112562
#	128772
#	144017
#
# Disc length: 2154 seconds
#
# Revision: 4
# Processed by: cddbd v1.4PL0 Copyright (c) Steve Scherf et al.
# Submitted via: dBpowerAMP V4.0
#
DISCID=6d08680a
DTITLE=Neal McCoy - No Doubt About It
DYEAR=1994
DGENRE=Country
TTITLE0=No Doubt About It
TTITLE1=The City Put The Country Back In Me
TTITLE2=Why Now
TTITLE3=Heaven
TTITLE4=Wink
TTITLE5=I Apologize
TTITLE6=Mudslide
TTITLE7=Why Not Tonight
TTITLE8=Small Up And Simple Down
TTITLE9=Something Moving In Me
EXTD=
EXTT0=
EXTT1=
EXTT2=
EXTT3=
EXTT4=
EXTT5=
EXTT6=
EXTT7=
EXTT8=
EXTT9=
PLAYORDER=
